<svg width="24" height="24" viewBox="0 0 24 24" fill="none" xmlns="http://www.w3.org/2000/svg">
<path fill-rule="evenodd" clip-rule="evenodd" d="M3.80641 6.2064C4.70654 5.30653 5.92722 4.80102 7.20001 4.80102C8.47279 4.80102 9.69347 5.30653 10.5936 6.2064L12 7.6116L13.4064 6.2064C13.8492 5.74795 14.3788 5.38227 14.9645 5.13071C15.5501 4.87915 16.1799 4.74673 16.8173 4.74119C17.4546 4.73566 18.0867 4.8571 18.6766 5.09845C19.2665 5.3398 19.8024 5.69621 20.2531 6.1469C20.7038 6.59758 21.0602 7.13351 21.3016 7.72342C21.5429 8.31332 21.6643 8.94538 21.6588 9.58272C21.6533 10.2201 21.5209 10.8499 21.2693 11.4355C21.0177 12.0212 20.6521 12.5508 20.1936 12.9936L12 21.1884L3.80641 12.9936C2.90655 12.0935 2.40103 10.8728 2.40103 9.6C2.40103 8.32721 2.90655 7.10653 3.80641 6.2064V6.2064Z" fill="#112044"/>
</svg>
