<svg width="25" height="24" viewBox="0 0 25 24" fill="none" xmlns="http://www.w3.org/2000/svg">
<path d="M3.67592 7.77789C3.90207 7.23192 4.23354 6.73584 4.65141 6.31798C5.06928 5.90011 5.56536 5.56864 6.11132 5.34249C6.65729 5.11634 7.24246 4.99994 7.83341 4.99994C8.42437 4.99994 9.00953 5.11634 9.5555 5.34249C10.1015 5.56864 10.5975 5.90011 11.0154 6.31798L12.3334 7.63598L13.6514 6.31798C14.4953 5.47406 15.6399 4.99995 16.8334 4.99995C18.0269 4.99995 19.1715 5.47406 20.0154 6.31798C20.8593 7.1619 21.3334 8.3065 21.3334 9.49998C21.3334 10.6935 20.8593 11.8381 20.0154 12.682L12.3334 20.364L4.65141 12.682C4.23354 12.2641 3.90207 11.768 3.67592 11.2221C3.44977 10.6761 3.33337 10.0909 3.33337 9.49998C3.33337 8.90902 3.44977 8.32386 3.67592 7.77789Z" stroke="#112044" stroke-width="2" stroke-linecap="round" stroke-linejoin="round"/>
</svg>
