<svg width="44" height="50" viewBox="0 0 44 50" fill="none" xmlns="http://www.w3.org/2000/svg">
<path fill-rule="evenodd" clip-rule="evenodd" d="M18.9 0.200012C18.3244 0.20032 17.7603 0.36085 17.2709 0.663624C16.7814 0.966399 16.3859 1.39946 16.1286 1.91431L13.8842 6.40001H3.39999C2.57782 6.40001 1.78932 6.72662 1.20796 7.30798C0.626594 7.88934 0.299988 8.67784 0.299988 9.50001C0.299988 10.3222 0.626594 11.1107 1.20796 11.692C1.78932 12.2734 2.57782 12.6 3.39999 12.6V43.6C3.39999 45.2444 4.0532 46.8213 5.21593 47.9841C6.37865 49.1468 7.95565 49.8 9.59999 49.8H34.4C36.0443 49.8 37.6213 49.1468 38.7841 47.9841C39.9468 46.8213 40.6 45.2444 40.6 43.6V12.6C41.4222 12.6 42.2107 12.2734 42.792 11.692C43.3734 11.1107 43.7 10.3222 43.7 9.50001C43.7 8.67784 43.3734 7.88934 42.792 7.30798C42.2107 6.72662 41.4222 6.40001 40.6 6.40001H30.1158L27.8714 1.91431C27.6141 1.39946 27.2186 0.966399 26.7291 0.663624C26.2396 0.36085 25.6755 0.20032 25.1 0.200012H18.9ZM12.7 18.8C12.7 17.9778 13.0266 17.1893 13.608 16.608C14.1893 16.0266 14.9778 15.7 15.8 15.7C16.6222 15.7 17.4107 16.0266 17.992 16.608C18.5734 17.1893 18.9 17.9778 18.9 18.8V37.4C18.9 38.2222 18.5734 39.0107 17.992 39.592C17.4107 40.1734 16.6222 40.5 15.8 40.5C14.9778 40.5 14.1893 40.1734 13.608 39.592C13.0266 39.0107 12.7 38.2222 12.7 37.4V18.8ZM28.2 15.7C27.3778 15.7 26.5893 16.0266 26.008 16.608C25.4266 17.1893 25.1 17.9778 25.1 18.8V37.4C25.1 38.2222 25.4266 39.0107 26.008 39.592C26.5893 40.1734 27.3778 40.5 28.2 40.5C29.0222 40.5 29.8107 40.1734 30.392 39.592C30.9734 39.0107 31.3 38.2222 31.3 37.4V18.8C31.3 17.9778 30.9734 17.1893 30.392 16.608C29.8107 16.0266 29.0222 15.7 28.2 15.7Z" fill="#112044"/>
</svg>
